<svg width="32" height="23" viewBox="0 0 32 23" fill="none" xmlns="http://www.w3.org/2000/svg">
<path d="M11.324 22.7849L0.704959 12.6914C0.643717 12.6332 0.595117 12.564 0.561954 12.4878C0.528791 12.4115 0.511719 12.3298 0.511719 12.2472C0.511719 12.1647 0.528791 12.0829 0.561954 12.0067C0.595117 11.9305 0.643717 11.8613 0.704959 11.8031L3.38578 9.23771C3.64195 8.99285 4.05598 8.99285 4.31215 9.23771L11.3031 15.8803C11.5593 16.1252 11.9763 16.1223 12.2325 15.8775L27.68 0.969343C27.9361 0.721633 28.3531 0.721633 28.6123 0.966495L31.2961 3.53185C31.5523 3.77672 31.5523 4.17248 31.2991 4.41734L14.4695 20.6494L14.4725 20.6523L12.2533 22.7849C11.9972 23.0297 11.5801 23.0297 11.324 22.7849Z" fill="#267993"/>
</svg>
