<svg width="31" height="31" viewBox="0 0 31 31" fill="none" xmlns="http://www.w3.org/2000/svg">
<path d="M17.0674 15.5L25.0142 6.02744C25.1474 5.87002 25.0354 5.63086 24.8295 5.63086H22.4137C22.2714 5.63086 22.1352 5.69443 22.0414 5.80342L15.4872 13.617L8.93296 5.80342C8.84214 5.69443 8.70591 5.63086 8.56059 5.63086H6.14477C5.93891 5.63086 5.8269 5.87002 5.96011 6.02744L13.9069 15.5L5.96011 24.9726C5.93027 25.0077 5.91112 25.0506 5.90495 25.0962C5.89878 25.1419 5.90583 25.1883 5.92527 25.2301C5.94471 25.2718 5.97573 25.3071 6.01464 25.3318C6.05355 25.3564 6.09871 25.3694 6.14477 25.3691H8.56059C8.70288 25.3691 8.83911 25.3056 8.93296 25.1966L15.4872 17.383L22.0414 25.1966C22.1322 25.3056 22.2684 25.3691 22.4137 25.3691H24.8295C25.0354 25.3691 25.1474 25.13 25.0142 24.9726L17.0674 15.5Z" fill="#143153"/>
</svg>
