<svg width="37" height="29" viewBox="0 0 37 29" fill="none" xmlns="http://www.w3.org/2000/svg">
<path d="M35.1562 0.40625H1.84375C1.13506 0.40625 0.5625 0.978809 0.5625 1.6875V27.3125C0.5625 28.0212 1.13506 28.5938 1.84375 28.5938H35.1562C35.8649 28.5938 36.4375 28.0212 36.4375 27.3125V1.6875C36.4375 0.978809 35.8649 0.40625 35.1562 0.40625ZM31.9211 4.7665L19.2888 14.5961C18.9765 14.8403 18.54 14.8403 18.2277 14.5961L5.59141 4.7665C5.54377 4.72974 5.50883 4.679 5.49149 4.62138C5.47414 4.56377 5.47526 4.50217 5.49469 4.44522C5.51411 4.38827 5.55087 4.33883 5.59981 4.30382C5.64874 4.26881 5.70741 4.24999 5.76758 4.25H31.7449C31.8051 4.24999 31.8638 4.26881 31.9127 4.30382C31.9616 4.33883 31.9984 4.38827 32.0178 4.44522C32.0372 4.50217 32.0384 4.56377 32.021 4.62138C32.0037 4.679 31.9687 4.72974 31.9211 4.7665V4.7665Z" fill="#267993"/>
</svg>
