<svg width="41" height="42" viewBox="0 0 41 42" fill="none" xmlns="http://www.w3.org/2000/svg">
<path d="M20.5019 0.0888672C14.9344 0.0888672 14.2357 0.113211 12.049 0.212722C9.86658 0.312659 8.3769 0.658169 7.07343 1.16512C5.72511 1.68872 4.58137 2.38914 3.4419 3.52902C2.30158 4.66848 1.60115 5.81221 1.07583 7.16009C0.567599 8.46397 0.221658 9.95407 0.123428 12.1356C0.0256251 14.3223 0 15.0214 0 20.5889C0 26.1563 0.0247715 26.8529 0.123856 29.0396C0.224221 31.222 0.569735 32.7116 1.07626 34.0151C1.6003 35.3634 2.30072 36.5071 3.44062 37.6466C4.57966 38.7869 5.7234 39.489 7.07087 40.0126C8.37519 40.5196 9.8653 40.8651 12.0473 40.965C14.234 41.0645 14.9323 41.0889 20.4994 41.0889C26.0673 41.0889 26.7639 41.0645 28.9506 40.965C31.133 40.8651 32.6244 40.5196 33.9287 40.0126C35.2766 39.489 36.4186 38.7869 37.5577 37.6466C38.698 36.5071 39.3984 35.3634 39.9237 34.0155C40.4277 32.7116 40.7736 31.2215 40.8761 29.04C40.9744 26.8533 41 26.1563 41 20.5889C41 15.0214 40.9744 14.3227 40.8761 12.136C40.7736 9.95364 40.4277 8.46397 39.9237 7.16051C39.3984 5.81221 38.698 4.66848 37.5577 3.52902C36.4174 2.38871 35.277 1.68829 33.9274 1.16512C32.6205 0.658169 31.13 0.312659 28.9476 0.212722C26.7609 0.113211 26.0647 0.0888672 20.4955 0.0888672H20.5019ZM18.6629 3.78314C19.2087 3.78228 19.8177 3.78314 20.5019 3.78314C25.9755 3.78314 26.6242 3.80278 28.7857 3.90101C30.7845 3.99241 31.8693 4.32639 32.5919 4.60698C33.5486 4.97854 34.2307 5.42271 34.9477 6.14021C35.6652 6.85771 36.1094 7.54104 36.4818 8.49771C36.7624 9.21948 37.0968 10.3043 37.1878 12.303C37.286 14.4641 37.3074 15.1132 37.3074 20.5842C37.3074 26.0551 37.286 26.7043 37.1878 28.8653C37.0964 30.8641 36.7624 31.9489 36.4818 32.6706C36.1103 33.6273 35.6652 34.3085 34.9477 35.0256C34.2302 35.7431 33.549 36.1872 32.5919 36.5588C31.8701 36.8407 30.7845 37.1738 28.7857 37.2652C26.6247 37.3634 25.9755 37.3848 20.5019 37.3848C15.0279 37.3848 14.3792 37.3634 12.2181 37.2652C10.2194 37.1729 9.13455 36.839 8.41149 36.5584C7.45482 36.1868 6.77148 35.7426 6.05397 35.0251C5.33646 34.3076 4.89229 33.626 4.51987 32.6689C4.23927 31.9472 3.90486 30.8624 3.81389 28.8636C3.71566 26.7026 3.69602 26.0534 3.69602 20.579C3.69602 15.1047 3.71566 14.4589 3.81389 12.2979C3.90529 10.2991 4.23927 9.21436 4.51987 8.49173C4.89144 7.53507 5.33646 6.85173 6.05397 6.13423C6.77148 5.41673 7.45482 4.97257 8.41149 4.60015C9.13413 4.31827 10.2194 3.98515 12.2181 3.89333C14.1093 3.80791 14.8422 3.78228 18.6629 3.77801V3.78314ZM31.4448 7.18699C30.0866 7.18699 28.9847 8.28759 28.9847 9.64614C28.9847 11.0043 30.0866 12.1061 31.4448 12.1061C32.8029 12.1061 33.9048 11.0043 33.9048 9.64614C33.9048 8.28801 32.8029 7.18614 31.4448 7.18614V7.18699ZM20.5019 10.0613C14.688 10.0613 9.97421 14.775 9.97421 20.5889C9.97421 26.4028 14.688 31.1143 20.5019 31.1143C26.3159 31.1143 31.0279 26.4028 31.0279 20.5889C31.0279 14.775 26.3154 10.0613 20.5015 10.0613H20.5019ZM20.5019 13.7555C24.2757 13.7555 27.3353 16.8147 27.3353 20.5889C27.3353 24.3626 24.2757 27.4222 20.5019 27.4222C16.7277 27.4222 13.6685 24.3626 13.6685 20.5889C13.6685 16.8147 16.7277 13.7555 20.5019 13.7555Z" fill="#267993"/>
</svg>
