<svg width="34" height="35" viewBox="0 0 34 35" fill="none" xmlns="http://www.w3.org/2000/svg">
<g clip-path="url(#clip0)">
<path d="M31.8685 22.8954L34.0004 22.228L0.118466 0C0.118466 0 -0.763478 3.48454 2.31291 8.37415C2.31291 8.37415 1.41708 4.60859 1.68097 3.09113L31.8685 22.8954Z" fill="#143153"/>
<path d="M33.9999 22.228C33.7777 22.8954 32.5208 26.0638 29.2777 29.6748L32.3402 22.7549L33.9999 22.228Z" fill="#143153"/>
<path d="M34 22.228C32.3333 27.8974 28.6041 32.1548 25.5208 35L24.9236 33.9603C27.9097 30.8762 31.6319 25.4737 32.0139 22.9938C31.9305 22.9446 31.2708 22.5091 31.2708 22.5091" fill="#143153"/>
<path d="M28.9445 23.5488L1.51392 9.11883C1.51392 9.11883 2.00697 13.2989 4.12503 15.2941C4.12503 15.2941 3.11808 12.7931 3.16669 11.6339L27.7986 24.5885L28.9445 23.5488Z" fill="#143153"/>
<path d="M26.1389 26.0919L3.50696 16.6569C3.62501 18.0831 4.31946 20.4857 5.71529 21.3498C5.16668 19.8183 5.0139 19.1298 4.98612 18.5678L25.1597 26.9771L26.1389 26.0919Z" fill="#143153"/>
<path d="M6.43758 24.1038L22.7223 29.1901L23.514 28.4665L5.07647 22.7058C5.07647 22.7058 4.94452 24.7923 7.04869 26.4432C7.05563 26.4502 6.38897 24.996 6.43758 24.1038Z" fill="#143153"/>
</g>
<defs>
<clipPath id="clip0">
<rect width="34" height="35" fill="white"/>
</clipPath>
</defs>
</svg>
