<svg width="31" height="39" viewBox="0 0 31 39" fill="none" xmlns="http://www.w3.org/2000/svg">
<path d="M29.8461 9.65508C30.1039 9.91289 30.25 10.2609 30.25 10.6262V37.125C30.25 37.8855 29.6355 38.5 28.875 38.5H1.375C0.614453 38.5 0 37.8855 0 37.125V1.375C0 0.614453 0.614453 0 1.375 0H19.6238C19.9891 0 20.3414 0.146094 20.5992 0.403906L29.8461 9.65508ZM27.0789 11.2578L18.9922 3.17109V11.2578H27.0789ZM20.3337 24.6323C19.6814 24.6108 18.9879 24.6611 18.2003 24.7595C17.1561 24.1154 16.4532 23.2306 15.9539 21.9308L15.9998 21.7426L16.0531 21.52C16.2379 20.741 16.3372 20.1725 16.3668 19.5993C16.3891 19.1666 16.3651 18.7675 16.2882 18.3975C16.1464 17.5987 15.5813 17.1316 14.8693 17.1029C14.2055 17.0758 13.5953 17.4466 13.4393 18.0211C13.1854 18.9501 13.3341 20.1725 13.8725 22.2574C13.1867 23.8923 12.2805 25.8092 11.6725 26.8782C10.8608 27.2968 10.2287 27.6775 9.69762 28.0994C8.99723 28.6567 8.5598 29.2295 8.43949 29.8311C8.38105 30.1099 8.46914 30.4743 8.6698 30.7729C8.89754 31.1115 9.24043 31.3315 9.65164 31.3633C10.6893 31.4437 11.9646 30.3738 13.3727 27.9576C13.5141 27.9104 13.6636 27.8605 13.8462 27.7986L14.3576 27.6259C14.6811 27.5168 14.9157 27.4386 15.1478 27.3634C16.1532 27.0359 16.9138 26.8293 17.6056 26.7115C18.8078 27.3552 20.1975 27.7771 21.1333 27.7771C21.9059 27.7771 22.428 27.3767 22.6166 26.7463C22.782 26.1929 22.651 25.5509 22.2952 25.196C21.9274 24.8347 21.2511 24.6619 20.3337 24.6323ZM9.67785 30.1503V30.1348L9.68344 30.1202C9.74631 29.9577 9.82701 29.8026 9.92406 29.6579C10.108 29.3752 10.3611 29.0778 10.6747 28.7611C10.8432 28.5914 11.0185 28.426 11.2243 28.2404C11.2703 28.1991 11.5642 27.9374 11.6192 27.8859L12.0991 27.439L11.7502 27.9946C11.2209 28.8385 10.7422 29.4461 10.3323 29.8422C10.1814 29.9883 10.0487 30.0957 9.94125 30.1649C9.90579 30.1886 9.86825 30.209 9.8291 30.2259C9.81148 30.2332 9.79601 30.2375 9.78055 30.2388C9.76422 30.2409 9.74763 30.2387 9.73242 30.2324C9.71625 30.2256 9.70244 30.2142 9.69273 30.1996C9.68302 30.185 9.67785 30.1678 9.67785 30.1503ZM15.0893 20.7711L14.9922 20.943L14.9321 20.7548C14.7989 20.3324 14.7009 19.696 14.6738 19.122C14.6429 18.4688 14.6949 18.077 14.9011 18.077C15.1907 18.077 15.3235 18.541 15.3338 19.2393C15.3433 19.8529 15.2466 20.4914 15.0889 20.7711H15.0893ZM14.8397 23.283L14.9054 23.109L14.9952 23.2723C15.4975 24.185 16.1494 24.9464 16.8661 25.477L17.0208 25.5913L16.8321 25.63C16.1305 25.7752 15.4769 25.9935 14.5832 26.354C14.6764 26.3162 13.6542 26.7347 13.3955 26.834L13.1699 26.9204L13.2902 26.7107C13.8209 25.7868 14.3112 24.6774 14.8393 23.283H14.8397ZM21.6124 26.5598C21.2747 26.693 20.5477 26.574 19.2676 26.0275L18.9428 25.8891L19.2951 25.8633C20.2963 25.789 21.0053 25.844 21.4186 25.9952C21.5948 26.0597 21.7121 26.1409 21.7641 26.2337C21.7915 26.2776 21.8007 26.3305 21.7898 26.3811C21.7789 26.4317 21.7487 26.4761 21.7057 26.5048C21.6783 26.5289 21.6467 26.5476 21.6124 26.5598Z" fill="#267993"/>
</svg>
